<?xml version="1.0" encoding="UTF-8" standalone="no"?>
<!DOCTYPE svg PUBLIC "-//W3C//DTD SVG 1.1//EN"
 "http://www.w3.org/Graphics/SVG/1.1/DTD/svg11.dtd">
<!-- Generated by graphviz version 2.38.0 (20140413.2041)
 -->
<!-- Title: name Pages: 1 -->
<svg width="616pt" height="886pt"
 viewBox="0.00 0.00 616.00 886.00" xmlns="http://www.w3.org/2000/svg" xmlns:xlink="http://www.w3.org/1999/xlink">
<g id="graph0" class="graph" transform="scale(1 1) rotate(0) translate(4 882)">
<title>name</title>
<!-- district -->
<g id="node1" class="node"><title>district</title>
<polygon fill="Lavender" stroke="none" points="403,-307.5 403,-330.5 517,-330.5 517,-307.5 403,-307.5"/>
<polygon fill="none" stroke="black" points="403,-307.5 403,-330.5 517,-330.5 517,-307.5 403,-307.5"/>
<text text-anchor="start" x="436" y="-315.9" font-family="Helvetica,sans-Serif" font-weight="bold" font-size="12.00">district</text>
<polygon fill="White" stroke="none" points="403,-288.5 403,-307.5 465,-307.5 465,-288.5 403,-288.5"/>
<polygon fill="none" stroke="black" points="403,-288.5 403,-307.5 465,-307.5 465,-288.5 403,-288.5"/>
<text text-anchor="start" x="406" y="-294.9" font-family="Helvetica,sans-Serif" font-size="12.00">district_id</text>
<polygon fill="White" stroke="none" points="465,-288.5 465,-307.5 517,-307.5 517,-288.5 465,-288.5"/>
<polygon fill="none" stroke="black" points="465,-288.5 465,-307.5 517,-307.5 517,-288.5 465,-288.5"/>
<text text-anchor="start" x="468" y="-294.9" font-family="Helvetica,sans-Serif" font-size="12.00">int</text>
<polygon fill="White" stroke="none" points="403,-269.5 403,-288.5 465,-288.5 465,-269.5 403,-269.5"/>
<polygon fill="none" stroke="black" points="403,-269.5 403,-288.5 465,-288.5 465,-269.5 403,-269.5"/>
<text text-anchor="start" x="406" y="-275.9" font-family="Helvetica,sans-Serif" font-size="12.00">A2</text>
<polygon fill="White" stroke="none" points="465,-269.5 465,-288.5 517,-288.5 517,-269.5 465,-269.5"/>
<polygon fill="none" stroke="black" points="465,-269.5 465,-288.5 517,-288.5 517,-269.5 465,-269.5"/>
<text text-anchor="start" x="468" y="-275.9" font-family="Helvetica,sans-Serif" font-size="12.00">varchar</text>
<polygon fill="White" stroke="none" points="403,-250.5 403,-269.5 465,-269.5 465,-250.5 403,-250.5"/>
<polygon fill="none" stroke="black" points="403,-250.5 403,-269.5 465,-269.5 465,-250.5 403,-250.5"/>
<text text-anchor="start" x="406" y="-256.9" font-family="Helvetica,sans-Serif" font-size="12.00">A3</text>
<polygon fill="White" stroke="none" points="465,-250.5 465,-269.5 517,-269.5 517,-250.5 465,-250.5"/>
<polygon fill="none" stroke="black" points="465,-250.5 465,-269.5 517,-269.5 517,-250.5 465,-250.5"/>
<text text-anchor="start" x="468" y="-256.9" font-family="Helvetica,sans-Serif" font-size="12.00">varchar</text>
<polygon fill="White" stroke="none" points="403,-231.5 403,-250.5 465,-250.5 465,-231.5 403,-231.5"/>
<polygon fill="none" stroke="black" points="403,-231.5 403,-250.5 465,-250.5 465,-231.5 403,-231.5"/>
<text text-anchor="start" x="406" y="-237.9" font-family="Helvetica,sans-Serif" font-size="12.00">A4</text>
<polygon fill="White" stroke="none" points="465,-231.5 465,-250.5 517,-250.5 517,-231.5 465,-231.5"/>
<polygon fill="none" stroke="black" points="465,-231.5 465,-250.5 517,-250.5 517,-231.5 465,-231.5"/>
<text text-anchor="start" x="468" y="-237.9" font-family="Helvetica,sans-Serif" font-size="12.00">int</text>
<polygon fill="White" stroke="none" points="403,-212.5 403,-231.5 465,-231.5 465,-212.5 403,-212.5"/>
<polygon fill="none" stroke="black" points="403,-212.5 403,-231.5 465,-231.5 465,-212.5 403,-212.5"/>
<text text-anchor="start" x="406" y="-218.9" font-family="Helvetica,sans-Serif" font-size="12.00">A5</text>
<polygon fill="White" stroke="none" points="465,-212.5 465,-231.5 517,-231.5 517,-212.5 465,-212.5"/>
<polygon fill="none" stroke="black" points="465,-212.5 465,-231.5 517,-231.5 517,-212.5 465,-212.5"/>
<text text-anchor="start" x="468" y="-218.9" font-family="Helvetica,sans-Serif" font-size="12.00">int</text>
<polygon fill="White" stroke="none" points="403,-193.5 403,-212.5 465,-212.5 465,-193.5 403,-193.5"/>
<polygon fill="none" stroke="black" points="403,-193.5 403,-212.5 465,-212.5 465,-193.5 403,-193.5"/>
<text text-anchor="start" x="406" y="-199.9" font-family="Helvetica,sans-Serif" font-size="12.00">A6</text>
<polygon fill="White" stroke="none" points="465,-193.5 465,-212.5 517,-212.5 517,-193.5 465,-193.5"/>
<polygon fill="none" stroke="black" points="465,-193.5 465,-212.5 517,-212.5 517,-193.5 465,-193.5"/>
<text text-anchor="start" x="468" y="-199.9" font-family="Helvetica,sans-Serif" font-size="12.00">int</text>
<polygon fill="White" stroke="none" points="403,-174.5 403,-193.5 465,-193.5 465,-174.5 403,-174.5"/>
<polygon fill="none" stroke="black" points="403,-174.5 403,-193.5 465,-193.5 465,-174.5 403,-174.5"/>
<text text-anchor="start" x="406" y="-180.9" font-family="Helvetica,sans-Serif" font-size="12.00">A7</text>
<polygon fill="White" stroke="none" points="465,-174.5 465,-193.5 517,-193.5 517,-174.5 465,-174.5"/>
<polygon fill="none" stroke="black" points="465,-174.5 465,-193.5 517,-193.5 517,-174.5 465,-174.5"/>
<text text-anchor="start" x="468" y="-180.9" font-family="Helvetica,sans-Serif" font-size="12.00">int</text>
<polygon fill="White" stroke="none" points="403,-155.5 403,-174.5 465,-174.5 465,-155.5 403,-155.5"/>
<polygon fill="none" stroke="black" points="403,-155.5 403,-174.5 465,-174.5 465,-155.5 403,-155.5"/>
<text text-anchor="start" x="406" y="-161.9" font-family="Helvetica,sans-Serif" font-size="12.00">A8</text>
<polygon fill="White" stroke="none" points="465,-155.5 465,-174.5 517,-174.5 517,-155.5 465,-155.5"/>
<polygon fill="none" stroke="black" points="465,-155.5 465,-174.5 517,-174.5 517,-155.5 465,-155.5"/>
<text text-anchor="start" x="468" y="-161.9" font-family="Helvetica,sans-Serif" font-size="12.00">int</text>
<polygon fill="White" stroke="none" points="403,-136.5 403,-155.5 465,-155.5 465,-136.5 403,-136.5"/>
<polygon fill="none" stroke="black" points="403,-136.5 403,-155.5 465,-155.5 465,-136.5 403,-136.5"/>
<text text-anchor="start" x="406" y="-142.9" font-family="Helvetica,sans-Serif" font-size="12.00">A9</text>
<polygon fill="White" stroke="none" points="465,-136.5 465,-155.5 517,-155.5 517,-136.5 465,-136.5"/>
<polygon fill="none" stroke="black" points="465,-136.5 465,-155.5 517,-155.5 517,-136.5 465,-136.5"/>
<text text-anchor="start" x="468" y="-142.9" font-family="Helvetica,sans-Serif" font-size="12.00">int</text>
<polygon fill="White" stroke="none" points="403,-117.5 403,-136.5 465,-136.5 465,-117.5 403,-117.5"/>
<polygon fill="none" stroke="black" points="403,-117.5 403,-136.5 465,-136.5 465,-117.5 403,-117.5"/>
<text text-anchor="start" x="406" y="-123.9" font-family="Helvetica,sans-Serif" font-size="12.00">A10</text>
<polygon fill="White" stroke="none" points="465,-117.5 465,-136.5 517,-136.5 517,-117.5 465,-117.5"/>
<polygon fill="none" stroke="black" points="465,-117.5 465,-136.5 517,-136.5 517,-117.5 465,-117.5"/>
<text text-anchor="start" x="468" y="-123.9" font-family="Helvetica,sans-Serif" font-size="12.00">decimal</text>
<polygon fill="White" stroke="none" points="403,-98.5 403,-117.5 465,-117.5 465,-98.5 403,-98.5"/>
<polygon fill="none" stroke="black" points="403,-98.5 403,-117.5 465,-117.5 465,-98.5 403,-98.5"/>
<text text-anchor="start" x="406" y="-104.9" font-family="Helvetica,sans-Serif" font-size="12.00">A11</text>
<polygon fill="White" stroke="none" points="465,-98.5 465,-117.5 517,-117.5 517,-98.5 465,-98.5"/>
<polygon fill="none" stroke="black" points="465,-98.5 465,-117.5 517,-117.5 517,-98.5 465,-98.5"/>
<text text-anchor="start" x="468" y="-104.9" font-family="Helvetica,sans-Serif" font-size="12.00">int</text>
<polygon fill="White" stroke="none" points="403,-79.5 403,-98.5 465,-98.5 465,-79.5 403,-79.5"/>
<polygon fill="none" stroke="black" points="403,-79.5 403,-98.5 465,-98.5 465,-79.5 403,-79.5"/>
<text text-anchor="start" x="406" y="-85.9" font-family="Helvetica,sans-Serif" font-size="12.00">A12</text>
<polygon fill="White" stroke="none" points="465,-79.5 465,-98.5 517,-98.5 517,-79.5 465,-79.5"/>
<polygon fill="none" stroke="black" points="465,-79.5 465,-98.5 517,-98.5 517,-79.5 465,-79.5"/>
<text text-anchor="start" x="468" y="-85.9" font-family="Helvetica,sans-Serif" font-size="12.00">decimal</text>
<polygon fill="White" stroke="none" points="403,-60.5 403,-79.5 465,-79.5 465,-60.5 403,-60.5"/>
<polygon fill="none" stroke="black" points="403,-60.5 403,-79.5 465,-79.5 465,-60.5 403,-60.5"/>
<text text-anchor="start" x="406" y="-66.9" font-family="Helvetica,sans-Serif" font-size="12.00">A13</text>
<polygon fill="White" stroke="none" points="465,-60.5 465,-79.5 517,-79.5 517,-60.5 465,-60.5"/>
<polygon fill="none" stroke="black" points="465,-60.5 465,-79.5 517,-79.5 517,-60.5 465,-60.5"/>
<text text-anchor="start" x="468" y="-66.9" font-family="Helvetica,sans-Serif" font-size="12.00">decimal</text>
<polygon fill="White" stroke="none" points="403,-41.5 403,-60.5 465,-60.5 465,-41.5 403,-41.5"/>
<polygon fill="none" stroke="black" points="403,-41.5 403,-60.5 465,-60.5 465,-41.5 403,-41.5"/>
<text text-anchor="start" x="406" y="-47.9" font-family="Helvetica,sans-Serif" font-size="12.00">A14</text>
<polygon fill="White" stroke="none" points="465,-41.5 465,-60.5 517,-60.5 517,-41.5 465,-41.5"/>
<polygon fill="none" stroke="black" points="465,-41.5 465,-60.5 517,-60.5 517,-41.5 465,-41.5"/>
<text text-anchor="start" x="468" y="-47.9" font-family="Helvetica,sans-Serif" font-size="12.00">int</text>
<polygon fill="White" stroke="none" points="403,-22.5 403,-41.5 465,-41.5 465,-22.5 403,-22.5"/>
<polygon fill="none" stroke="black" points="403,-22.5 403,-41.5 465,-41.5 465,-22.5 403,-22.5"/>
<text text-anchor="start" x="406" y="-28.9" font-family="Helvetica,sans-Serif" font-size="12.00">A15</text>
<polygon fill="White" stroke="none" points="465,-22.5 465,-41.5 517,-41.5 517,-22.5 465,-22.5"/>
<polygon fill="none" stroke="black" points="465,-22.5 465,-41.5 517,-41.5 517,-22.5 465,-22.5"/>
<text text-anchor="start" x="468" y="-28.9" font-family="Helvetica,sans-Serif" font-size="12.00">int</text>
<polygon fill="White" stroke="none" points="403,-3.5 403,-22.5 465,-22.5 465,-3.5 403,-3.5"/>
<polygon fill="none" stroke="black" points="403,-3.5 403,-22.5 465,-22.5 465,-3.5 403,-3.5"/>
<text text-anchor="start" x="406" y="-9.9" font-family="Helvetica,sans-Serif" font-size="12.00">A16</text>
<polygon fill="White" stroke="none" points="465,-3.5 465,-22.5 517,-22.5 517,-3.5 465,-3.5"/>
<polygon fill="none" stroke="black" points="465,-3.5 465,-22.5 517,-22.5 517,-3.5 465,-3.5"/>
<text text-anchor="start" x="468" y="-9.9" font-family="Helvetica,sans-Serif" font-size="12.00">int</text>
</g>
<!-- account -->
<g id="node2" class="node"><title>account</title>
<polygon fill="Lavender" stroke="none" points="322,-450.5 322,-473.5 444,-473.5 444,-450.5 322,-450.5"/>
<polygon fill="none" stroke="black" points="322,-450.5 322,-473.5 444,-473.5 444,-450.5 322,-450.5"/>
<text text-anchor="start" x="356" y="-458.9" font-family="Helvetica,sans-Serif" font-weight="bold" font-size="12.00">account</text>
<polygon fill="White" stroke="none" points="322,-431.5 322,-450.5 392,-450.5 392,-431.5 322,-431.5"/>
<polygon fill="none" stroke="black" points="322,-431.5 322,-450.5 392,-450.5 392,-431.5 322,-431.5"/>
<text text-anchor="start" x="325" y="-437.9" font-family="Helvetica,sans-Serif" font-size="12.00">account_id</text>
<polygon fill="White" stroke="none" points="392,-431.5 392,-450.5 444,-450.5 444,-431.5 392,-431.5"/>
<polygon fill="none" stroke="black" points="392,-431.5 392,-450.5 444,-450.5 444,-431.5 392,-431.5"/>
<text text-anchor="start" x="395" y="-437.9" font-family="Helvetica,sans-Serif" font-size="12.00">int</text>
<polygon fill="White" stroke="none" points="322,-412.5 322,-431.5 392,-431.5 392,-412.5 322,-412.5"/>
<polygon fill="none" stroke="black" points="322,-412.5 322,-431.5 392,-431.5 392,-412.5 322,-412.5"/>
<text text-anchor="start" x="325" y="-418.9" font-family="Helvetica,sans-Serif" font-size="12.00">district_id</text>
<polygon fill="White" stroke="none" points="392,-412.5 392,-431.5 444,-431.5 444,-412.5 392,-412.5"/>
<polygon fill="none" stroke="black" points="392,-412.5 392,-431.5 444,-431.5 444,-412.5 392,-412.5"/>
<text text-anchor="start" x="395" y="-418.9" font-family="Helvetica,sans-Serif" font-size="12.00">int</text>
<polygon fill="White" stroke="none" points="322,-393.5 322,-412.5 392,-412.5 392,-393.5 322,-393.5"/>
<polygon fill="none" stroke="black" points="322,-393.5 322,-412.5 392,-412.5 392,-393.5 322,-393.5"/>
<text text-anchor="start" x="325" y="-399.9" font-family="Helvetica,sans-Serif" font-size="12.00">frequency</text>
<polygon fill="White" stroke="none" points="392,-393.5 392,-412.5 444,-412.5 444,-393.5 392,-393.5"/>
<polygon fill="none" stroke="black" points="392,-393.5 392,-412.5 444,-412.5 444,-393.5 392,-393.5"/>
<text text-anchor="start" x="395" y="-399.9" font-family="Helvetica,sans-Serif" font-size="12.00">varchar</text>
<polygon fill="White" stroke="none" points="322,-374.5 322,-393.5 392,-393.5 392,-374.5 322,-374.5"/>
<polygon fill="none" stroke="black" points="322,-374.5 322,-393.5 392,-393.5 392,-374.5 322,-374.5"/>
<text text-anchor="start" x="325" y="-380.9" font-family="Helvetica,sans-Serif" font-size="12.00">date</text>
<polygon fill="White" stroke="none" points="392,-374.5 392,-393.5 444,-393.5 444,-374.5 392,-374.5"/>
<polygon fill="none" stroke="black" points="392,-374.5 392,-393.5 444,-393.5 444,-374.5 392,-374.5"/>
<text text-anchor="start" x="395" y="-380.9" font-family="Helvetica,sans-Serif" font-size="12.00">date</text>
</g>
<!-- account&#45;&gt;district -->
<g id="edge1" class="edge"><title>account&#45;&gt;district</title>
<path fill="none" stroke="black" d="M423.5,-370.937C423.5,-370.937 423.5,-345.008 423.5,-345.008"/>
<polygon fill="black" stroke="black" points="427,-345.008 423.5,-335.008 420,-345.008 427,-345.008"/>
</g>
<!-- disp -->
<g id="node3" class="node"><title>disp</title>
<polygon fill="Lavender" stroke="none" points="478,-650.5 478,-673.5 600,-673.5 600,-650.5 478,-650.5"/>
<polygon fill="none" stroke="black" points="478,-650.5 478,-673.5 600,-673.5 600,-650.5 478,-650.5"/>
<text text-anchor="start" x="525" y="-658.9" font-family="Helvetica,sans-Serif" font-weight="bold" font-size="12.00">disp</text>
<polygon fill="White" stroke="none" points="478,-631.5 478,-650.5 548,-650.5 548,-631.5 478,-631.5"/>
<polygon fill="none" stroke="black" points="478,-631.5 478,-650.5 548,-650.5 548,-631.5 478,-631.5"/>
<text text-anchor="start" x="481" y="-637.9" font-family="Helvetica,sans-Serif" font-size="12.00">disp_id</text>
<polygon fill="White" stroke="none" points="548,-631.5 548,-650.5 600,-650.5 600,-631.5 548,-631.5"/>
<polygon fill="none" stroke="black" points="548,-631.5 548,-650.5 600,-650.5 600,-631.5 548,-631.5"/>
<text text-anchor="start" x="551" y="-637.9" font-family="Helvetica,sans-Serif" font-size="12.00">int</text>
<polygon fill="White" stroke="none" points="478,-612.5 478,-631.5 548,-631.5 548,-612.5 478,-612.5"/>
<polygon fill="none" stroke="black" points="478,-612.5 478,-631.5 548,-631.5 548,-612.5 478,-612.5"/>
<text text-anchor="start" x="481" y="-618.9" font-family="Helvetica,sans-Serif" font-size="12.00">client_id</text>
<polygon fill="White" stroke="none" points="548,-612.5 548,-631.5 600,-631.5 600,-612.5 548,-612.5"/>
<polygon fill="none" stroke="black" points="548,-612.5 548,-631.5 600,-631.5 600,-612.5 548,-612.5"/>
<text text-anchor="start" x="551" y="-618.9" font-family="Helvetica,sans-Serif" font-size="12.00">int</text>
<polygon fill="White" stroke="none" points="478,-593.5 478,-612.5 548,-612.5 548,-593.5 478,-593.5"/>
<polygon fill="none" stroke="black" points="478,-593.5 478,-612.5 548,-612.5 548,-593.5 478,-593.5"/>
<text text-anchor="start" x="481" y="-599.9" font-family="Helvetica,sans-Serif" font-size="12.00">account_id</text>
<polygon fill="White" stroke="none" points="548,-593.5 548,-612.5 600,-612.5 600,-593.5 548,-593.5"/>
<polygon fill="none" stroke="black" points="548,-593.5 548,-612.5 600,-612.5 600,-593.5 548,-593.5"/>
<text text-anchor="start" x="551" y="-599.9" font-family="Helvetica,sans-Serif" font-size="12.00">int</text>
<polygon fill="White" stroke="none" points="478,-574.5 478,-593.5 548,-593.5 548,-574.5 478,-574.5"/>
<polygon fill="none" stroke="black" points="478,-574.5 478,-593.5 548,-593.5 548,-574.5 478,-574.5"/>
<text text-anchor="start" x="481" y="-580.9" font-family="Helvetica,sans-Serif" font-size="12.00">type</text>
<polygon fill="White" stroke="none" points="548,-574.5 548,-593.5 600,-593.5 600,-574.5 548,-574.5"/>
<polygon fill="none" stroke="black" points="548,-574.5 548,-593.5 600,-593.5 600,-574.5 548,-574.5"/>
<text text-anchor="start" x="551" y="-580.9" font-family="Helvetica,sans-Serif" font-size="12.00">varchar</text>
</g>
<!-- disp&#45;&gt;account -->
<g id="edge5" class="edge"><title>disp&#45;&gt;account</title>
<path fill="none" stroke="black" d="M469.948,-624C464.471,-624 461,-624 461,-624 461,-624 461,-424 461,-424 461,-424 460.105,-424 460.105,-424"/>
<polygon fill="black" stroke="black" points="462.052,-420.5 452.052,-424 462.052,-427.5 462.052,-420.5"/>
</g>
<!-- client -->
<g id="node5" class="node"><title>client</title>
<polygon fill="Lavender" stroke="none" points="480,-450.5 480,-473.5 597,-473.5 597,-450.5 480,-450.5"/>
<polygon fill="none" stroke="black" points="480,-450.5 480,-473.5 597,-473.5 597,-450.5 480,-450.5"/>
<text text-anchor="start" x="520" y="-458.9" font-family="Helvetica,sans-Serif" font-weight="bold" font-size="12.00">client</text>
<polygon fill="White" stroke="none" points="480,-431.5 480,-450.5 545,-450.5 545,-431.5 480,-431.5"/>
<polygon fill="none" stroke="black" points="480,-431.5 480,-450.5 545,-450.5 545,-431.5 480,-431.5"/>
<text text-anchor="start" x="483" y="-437.9" font-family="Helvetica,sans-Serif" font-size="12.00">client_id</text>
<polygon fill="White" stroke="none" points="545,-431.5 545,-450.5 597,-450.5 597,-431.5 545,-431.5"/>
<polygon fill="none" stroke="black" points="545,-431.5 545,-450.5 597,-450.5 597,-431.5 545,-431.5"/>
<text text-anchor="start" x="548" y="-437.9" font-family="Helvetica,sans-Serif" font-size="12.00">int</text>
<polygon fill="White" stroke="none" points="480,-412.5 480,-431.5 545,-431.5 545,-412.5 480,-412.5"/>
<polygon fill="none" stroke="black" points="480,-412.5 480,-431.5 545,-431.5 545,-412.5 480,-412.5"/>
<text text-anchor="start" x="483" y="-418.9" font-family="Helvetica,sans-Serif" font-size="12.00">gender</text>
<polygon fill="White" stroke="none" points="545,-412.5 545,-431.5 597,-431.5 597,-412.5 545,-412.5"/>
<polygon fill="none" stroke="black" points="545,-412.5 545,-431.5 597,-431.5 597,-412.5 545,-412.5"/>
<text text-anchor="start" x="548" y="-418.9" font-family="Helvetica,sans-Serif" font-size="12.00">varchar</text>
<polygon fill="White" stroke="none" points="480,-393.5 480,-412.5 545,-412.5 545,-393.5 480,-393.5"/>
<polygon fill="none" stroke="black" points="480,-393.5 480,-412.5 545,-412.5 545,-393.5 480,-393.5"/>
<text text-anchor="start" x="483" y="-399.9" font-family="Helvetica,sans-Serif" font-size="12.00">birth_date</text>
<polygon fill="White" stroke="none" points="545,-393.5 545,-412.5 597,-412.5 597,-393.5 545,-393.5"/>
<polygon fill="none" stroke="black" points="545,-393.5 545,-412.5 597,-412.5 597,-393.5 545,-393.5"/>
<text text-anchor="start" x="548" y="-399.9" font-family="Helvetica,sans-Serif" font-size="12.00">date</text>
<polygon fill="White" stroke="none" points="480,-374.5 480,-393.5 545,-393.5 545,-374.5 480,-374.5"/>
<polygon fill="none" stroke="black" points="480,-374.5 480,-393.5 545,-393.5 545,-374.5 480,-374.5"/>
<text text-anchor="start" x="483" y="-380.9" font-family="Helvetica,sans-Serif" font-size="12.00">district_id</text>
<polygon fill="White" stroke="none" points="545,-374.5 545,-393.5 597,-393.5 597,-374.5 545,-374.5"/>
<polygon fill="none" stroke="black" points="545,-374.5 545,-393.5 597,-393.5 597,-374.5 545,-374.5"/>
<text text-anchor="start" x="548" y="-380.9" font-family="Helvetica,sans-Serif" font-size="12.00">int</text>
</g>
<!-- disp&#45;&gt;client -->
<g id="edge4" class="edge"><title>disp&#45;&gt;client</title>
<path fill="none" stroke="black" d="M538,-570.904C538,-570.904 538,-488.244 538,-488.244"/>
<polygon fill="black" stroke="black" points="541.5,-488.244 538,-478.244 534.5,-488.244 541.5,-488.244"/>
</g>
<!-- card -->
<g id="node4" class="node"><title>card</title>
<polygon fill="Lavender" stroke="none" points="489,-850.5 489,-873.5 590,-873.5 590,-850.5 489,-850.5"/>
<polygon fill="none" stroke="black" points="489,-850.5 489,-873.5 590,-873.5 590,-850.5 489,-850.5"/>
<text text-anchor="start" x="524.5" y="-858.9" font-family="Helvetica,sans-Serif" font-weight="bold" font-size="12.00">card</text>
<polygon fill="White" stroke="none" points="489,-831.5 489,-850.5 538,-850.5 538,-831.5 489,-831.5"/>
<polygon fill="none" stroke="black" points="489,-831.5 489,-850.5 538,-850.5 538,-831.5 489,-831.5"/>
<text text-anchor="start" x="492" y="-837.9" font-family="Helvetica,sans-Serif" font-size="12.00">card_id</text>
<polygon fill="White" stroke="none" points="538,-831.5 538,-850.5 590,-850.5 590,-831.5 538,-831.5"/>
<polygon fill="none" stroke="black" points="538,-831.5 538,-850.5 590,-850.5 590,-831.5 538,-831.5"/>
<text text-anchor="start" x="541" y="-837.9" font-family="Helvetica,sans-Serif" font-size="12.00">int</text>
<polygon fill="White" stroke="none" points="489,-812.5 489,-831.5 538,-831.5 538,-812.5 489,-812.5"/>
<polygon fill="none" stroke="black" points="489,-812.5 489,-831.5 538,-831.5 538,-812.5 489,-812.5"/>
<text text-anchor="start" x="492" y="-818.9" font-family="Helvetica,sans-Serif" font-size="12.00">disp_id</text>
<polygon fill="White" stroke="none" points="538,-812.5 538,-831.5 590,-831.5 590,-812.5 538,-812.5"/>
<polygon fill="none" stroke="black" points="538,-812.5 538,-831.5 590,-831.5 590,-812.5 538,-812.5"/>
<text text-anchor="start" x="541" y="-818.9" font-family="Helvetica,sans-Serif" font-size="12.00">int</text>
<polygon fill="White" stroke="none" points="489,-793.5 489,-812.5 538,-812.5 538,-793.5 489,-793.5"/>
<polygon fill="none" stroke="black" points="489,-793.5 489,-812.5 538,-812.5 538,-793.5 489,-793.5"/>
<text text-anchor="start" x="492" y="-799.9" font-family="Helvetica,sans-Serif" font-size="12.00">type</text>
<polygon fill="White" stroke="none" points="538,-793.5 538,-812.5 590,-812.5 590,-793.5 538,-793.5"/>
<polygon fill="none" stroke="black" points="538,-793.5 538,-812.5 590,-812.5 590,-793.5 538,-793.5"/>
<text text-anchor="start" x="541" y="-799.9" font-family="Helvetica,sans-Serif" font-size="12.00">varchar</text>
<polygon fill="White" stroke="none" points="489,-774.5 489,-793.5 538,-793.5 538,-774.5 489,-774.5"/>
<polygon fill="none" stroke="black" points="489,-774.5 489,-793.5 538,-793.5 538,-774.5 489,-774.5"/>
<text text-anchor="start" x="492" y="-780.9" font-family="Helvetica,sans-Serif" font-size="12.00">issued</text>
<polygon fill="White" stroke="none" points="538,-774.5 538,-793.5 590,-793.5 590,-774.5 538,-774.5"/>
<polygon fill="none" stroke="black" points="538,-774.5 538,-793.5 590,-793.5 590,-774.5 538,-774.5"/>
<text text-anchor="start" x="541" y="-780.9" font-family="Helvetica,sans-Serif" font-size="12.00">date</text>
</g>
<!-- card&#45;&gt;disp -->
<g id="edge2" class="edge"><title>card&#45;&gt;disp</title>
<path fill="none" stroke="black" d="M539,-770.904C539,-770.904 539,-688.244 539,-688.244"/>
<polygon fill="black" stroke="black" points="542.5,-688.244 539,-678.244 535.5,-688.244 542.5,-688.244"/>
</g>
<!-- client&#45;&gt;district -->
<g id="edge3" class="edge"><title>client&#45;&gt;district</title>
<path fill="none" stroke="black" d="M498.25,-370.937C498.25,-370.937 498.25,-345.008 498.25,-345.008"/>
<polygon fill="black" stroke="black" points="501.75,-345.008 498.25,-335.008 494.75,-345.008 501.75,-345.008"/>
</g>
<!-- loan -->
<g id="node6" class="node"><title>loan</title>
<polygon fill="Lavender" stroke="none" points="8,-679.5 8,-702.5 130,-702.5 130,-679.5 8,-679.5"/>
<polygon fill="none" stroke="black" points="8,-679.5 8,-702.5 130,-702.5 130,-679.5 8,-679.5"/>
<text text-anchor="start" x="55" y="-687.9" font-family="Helvetica,sans-Serif" font-weight="bold" font-size="12.00">loan</text>
<polygon fill="White" stroke="none" points="8,-660.5 8,-679.5 78,-679.5 78,-660.5 8,-660.5"/>
<polygon fill="none" stroke="black" points="8,-660.5 8,-679.5 78,-679.5 78,-660.5 8,-660.5"/>
<text text-anchor="start" x="11" y="-666.9" font-family="Helvetica,sans-Serif" font-size="12.00">loan_id</text>
<polygon fill="White" stroke="none" points="78,-660.5 78,-679.5 130,-679.5 130,-660.5 78,-660.5"/>
<polygon fill="none" stroke="black" points="78,-660.5 78,-679.5 130,-679.5 130,-660.5 78,-660.5"/>
<text text-anchor="start" x="81" y="-666.9" font-family="Helvetica,sans-Serif" font-size="12.00">int</text>
<polygon fill="White" stroke="none" points="8,-641.5 8,-660.5 78,-660.5 78,-641.5 8,-641.5"/>
<polygon fill="none" stroke="black" points="8,-641.5 8,-660.5 78,-660.5 78,-641.5 8,-641.5"/>
<text text-anchor="start" x="11" y="-647.9" font-family="Helvetica,sans-Serif" font-size="12.00">account_id</text>
<polygon fill="White" stroke="none" points="78,-641.5 78,-660.5 130,-660.5 130,-641.5 78,-641.5"/>
<polygon fill="none" stroke="black" points="78,-641.5 78,-660.5 130,-660.5 130,-641.5 78,-641.5"/>
<text text-anchor="start" x="81" y="-647.9" font-family="Helvetica,sans-Serif" font-size="12.00">int</text>
<polygon fill="White" stroke="none" points="8,-622.5 8,-641.5 78,-641.5 78,-622.5 8,-622.5"/>
<polygon fill="none" stroke="black" points="8,-622.5 8,-641.5 78,-641.5 78,-622.5 8,-622.5"/>
<text text-anchor="start" x="11" y="-628.9" font-family="Helvetica,sans-Serif" font-size="12.00">date</text>
<polygon fill="White" stroke="none" points="78,-622.5 78,-641.5 130,-641.5 130,-622.5 78,-622.5"/>
<polygon fill="none" stroke="black" points="78,-622.5 78,-641.5 130,-641.5 130,-622.5 78,-622.5"/>
<text text-anchor="start" x="81" y="-628.9" font-family="Helvetica,sans-Serif" font-size="12.00">date</text>
<polygon fill="White" stroke="none" points="8,-603.5 8,-622.5 78,-622.5 78,-603.5 8,-603.5"/>
<polygon fill="none" stroke="black" points="8,-603.5 8,-622.5 78,-622.5 78,-603.5 8,-603.5"/>
<text text-anchor="start" x="11" y="-609.9" font-family="Helvetica,sans-Serif" font-size="12.00">amount</text>
<polygon fill="White" stroke="none" points="78,-603.5 78,-622.5 130,-622.5 130,-603.5 78,-603.5"/>
<polygon fill="none" stroke="black" points="78,-603.5 78,-622.5 130,-622.5 130,-603.5 78,-603.5"/>
<text text-anchor="start" x="81" y="-609.9" font-family="Helvetica,sans-Serif" font-size="12.00">int</text>
<polygon fill="White" stroke="none" points="8,-584.5 8,-603.5 78,-603.5 78,-584.5 8,-584.5"/>
<polygon fill="none" stroke="black" points="8,-584.5 8,-603.5 78,-603.5 78,-584.5 8,-584.5"/>
<text text-anchor="start" x="11" y="-590.9" font-family="Helvetica,sans-Serif" font-size="12.00">duration</text>
<polygon fill="White" stroke="none" points="78,-584.5 78,-603.5 130,-603.5 130,-584.5 78,-584.5"/>
<polygon fill="none" stroke="black" points="78,-584.5 78,-603.5 130,-603.5 130,-584.5 78,-584.5"/>
<text text-anchor="start" x="81" y="-590.9" font-family="Helvetica,sans-Serif" font-size="12.00">int</text>
<polygon fill="White" stroke="none" points="8,-565.5 8,-584.5 78,-584.5 78,-565.5 8,-565.5"/>
<polygon fill="none" stroke="black" points="8,-565.5 8,-584.5 78,-584.5 78,-565.5 8,-565.5"/>
<text text-anchor="start" x="11" y="-571.9" font-family="Helvetica,sans-Serif" font-size="12.00">payments</text>
<polygon fill="White" stroke="none" points="78,-565.5 78,-584.5 130,-584.5 130,-565.5 78,-565.5"/>
<polygon fill="none" stroke="black" points="78,-565.5 78,-584.5 130,-584.5 130,-565.5 78,-565.5"/>
<text text-anchor="start" x="81" y="-571.9" font-family="Helvetica,sans-Serif" font-size="12.00">decimal</text>
<polygon fill="White" stroke="none" points="8,-546.5 8,-565.5 78,-565.5 78,-546.5 8,-546.5"/>
<polygon fill="none" stroke="black" points="8,-546.5 8,-565.5 78,-565.5 78,-546.5 8,-546.5"/>
<text text-anchor="start" x="11" y="-552.9" font-family="Helvetica,sans-Serif" font-size="12.00">status</text>
<polygon fill="White" stroke="none" points="78,-546.5 78,-565.5 130,-565.5 130,-546.5 78,-546.5"/>
<polygon fill="none" stroke="black" points="78,-546.5 78,-565.5 130,-565.5 130,-546.5 78,-546.5"/>
<text text-anchor="start" x="81" y="-552.9" font-family="Helvetica,sans-Serif" font-size="12.00">varchar</text>
</g>
<!-- loan&#45;&gt;account -->
<g id="edge6" class="edge"><title>loan&#45;&gt;account</title>
<path fill="none" stroke="black" d="M69,-542.206C69,-480.268 69,-406 69,-406 69,-406 303.703,-406 303.703,-406"/>
<polygon fill="black" stroke="black" points="303.703,-409.5 313.703,-406 303.703,-402.5 303.703,-409.5"/>
</g>
<!-- order -->
<g id="node7" class="node"><title>order</title>
<polygon fill="Lavender" stroke="none" points="164,-669.5 164,-692.5 288,-692.5 288,-669.5 164,-669.5"/>
<polygon fill="none" stroke="black" points="164,-669.5 164,-692.5 288,-692.5 288,-669.5 164,-669.5"/>
<text text-anchor="start" x="207.5" y="-677.9" font-family="Helvetica,sans-Serif" font-weight="bold" font-size="12.00">order</text>
<polygon fill="White" stroke="none" points="164,-650.5 164,-669.5 236,-669.5 236,-650.5 164,-650.5"/>
<polygon fill="none" stroke="black" points="164,-650.5 164,-669.5 236,-669.5 236,-650.5 164,-650.5"/>
<text text-anchor="start" x="167" y="-656.9" font-family="Helvetica,sans-Serif" font-size="12.00">order_id</text>
<polygon fill="White" stroke="none" points="236,-650.5 236,-669.5 288,-669.5 288,-650.5 236,-650.5"/>
<polygon fill="none" stroke="black" points="236,-650.5 236,-669.5 288,-669.5 288,-650.5 236,-650.5"/>
<text text-anchor="start" x="239" y="-656.9" font-family="Helvetica,sans-Serif" font-size="12.00">int</text>
<polygon fill="White" stroke="none" points="164,-631.5 164,-650.5 236,-650.5 236,-631.5 164,-631.5"/>
<polygon fill="none" stroke="black" points="164,-631.5 164,-650.5 236,-650.5 236,-631.5 164,-631.5"/>
<text text-anchor="start" x="167" y="-637.9" font-family="Helvetica,sans-Serif" font-size="12.00">account_id</text>
<polygon fill="White" stroke="none" points="236,-631.5 236,-650.5 288,-650.5 288,-631.5 236,-631.5"/>
<polygon fill="none" stroke="black" points="236,-631.5 236,-650.5 288,-650.5 288,-631.5 236,-631.5"/>
<text text-anchor="start" x="239" y="-637.9" font-family="Helvetica,sans-Serif" font-size="12.00">int</text>
<polygon fill="White" stroke="none" points="164,-612.5 164,-631.5 236,-631.5 236,-612.5 164,-612.5"/>
<polygon fill="none" stroke="black" points="164,-612.5 164,-631.5 236,-631.5 236,-612.5 164,-612.5"/>
<text text-anchor="start" x="167" y="-618.9" font-family="Helvetica,sans-Serif" font-size="12.00">bank_to</text>
<polygon fill="White" stroke="none" points="236,-612.5 236,-631.5 288,-631.5 288,-612.5 236,-612.5"/>
<polygon fill="none" stroke="black" points="236,-612.5 236,-631.5 288,-631.5 288,-612.5 236,-612.5"/>
<text text-anchor="start" x="239" y="-618.9" font-family="Helvetica,sans-Serif" font-size="12.00">varchar</text>
<polygon fill="White" stroke="none" points="164,-593.5 164,-612.5 236,-612.5 236,-593.5 164,-593.5"/>
<polygon fill="none" stroke="black" points="164,-593.5 164,-612.5 236,-612.5 236,-593.5 164,-593.5"/>
<text text-anchor="start" x="167" y="-599.9" font-family="Helvetica,sans-Serif" font-size="12.00">account_to</text>
<polygon fill="White" stroke="none" points="236,-593.5 236,-612.5 288,-612.5 288,-593.5 236,-593.5"/>
<polygon fill="none" stroke="black" points="236,-593.5 236,-612.5 288,-612.5 288,-593.5 236,-593.5"/>
<text text-anchor="start" x="239" y="-599.9" font-family="Helvetica,sans-Serif" font-size="12.00">int</text>
<polygon fill="White" stroke="none" points="164,-574.5 164,-593.5 236,-593.5 236,-574.5 164,-574.5"/>
<polygon fill="none" stroke="black" points="164,-574.5 164,-593.5 236,-593.5 236,-574.5 164,-574.5"/>
<text text-anchor="start" x="167" y="-580.9" font-family="Helvetica,sans-Serif" font-size="12.00">amount</text>
<polygon fill="White" stroke="none" points="236,-574.5 236,-593.5 288,-593.5 288,-574.5 236,-574.5"/>
<polygon fill="none" stroke="black" points="236,-574.5 236,-593.5 288,-593.5 288,-574.5 236,-574.5"/>
<text text-anchor="start" x="239" y="-580.9" font-family="Helvetica,sans-Serif" font-size="12.00">decimal</text>
<polygon fill="White" stroke="none" points="164,-555.5 164,-574.5 236,-574.5 236,-555.5 164,-555.5"/>
<polygon fill="none" stroke="black" points="164,-555.5 164,-574.5 236,-574.5 236,-555.5 164,-555.5"/>
<text text-anchor="start" x="167" y="-561.9" font-family="Helvetica,sans-Serif" font-size="12.00">k_symbol</text>
<polygon fill="White" stroke="none" points="236,-555.5 236,-574.5 288,-574.5 288,-555.5 236,-555.5"/>
<polygon fill="none" stroke="black" points="236,-555.5 236,-574.5 288,-574.5 288,-555.5 236,-555.5"/>
<text text-anchor="start" x="239" y="-561.9" font-family="Helvetica,sans-Serif" font-size="12.00">varchar</text>
</g>
<!-- order&#45;&gt;account -->
<g id="edge7" class="edge"><title>order&#45;&gt;account</title>
<path fill="none" stroke="black" d="M226,-551.847C226,-500.953 226,-442 226,-442 226,-442 303.681,-442 303.681,-442"/>
<polygon fill="black" stroke="black" points="303.681,-445.5 313.681,-442 303.68,-438.5 303.681,-445.5"/>
</g>
<!-- trans -->
<g id="node8" class="node"><title>trans</title>
<polygon fill="Lavender" stroke="none" points="322,-707.5 322,-730.5 444,-730.5 444,-707.5 322,-707.5"/>
<polygon fill="none" stroke="black" points="322,-707.5 322,-730.5 444,-730.5 444,-707.5 322,-707.5"/>
<text text-anchor="start" x="365" y="-715.9" font-family="Helvetica,sans-Serif" font-weight="bold" font-size="12.00">trans</text>
<polygon fill="White" stroke="none" points="322,-688.5 322,-707.5 392,-707.5 392,-688.5 322,-688.5"/>
<polygon fill="none" stroke="black" points="322,-688.5 322,-707.5 392,-707.5 392,-688.5 322,-688.5"/>
<text text-anchor="start" x="325" y="-694.9" font-family="Helvetica,sans-Serif" font-size="12.00">trans_id</text>
<polygon fill="White" stroke="none" points="392,-688.5 392,-707.5 444,-707.5 444,-688.5 392,-688.5"/>
<polygon fill="none" stroke="black" points="392,-688.5 392,-707.5 444,-707.5 444,-688.5 392,-688.5"/>
<text text-anchor="start" x="395" y="-694.9" font-family="Helvetica,sans-Serif" font-size="12.00">int</text>
<polygon fill="White" stroke="none" points="322,-669.5 322,-688.5 392,-688.5 392,-669.5 322,-669.5"/>
<polygon fill="none" stroke="black" points="322,-669.5 322,-688.5 392,-688.5 392,-669.5 322,-669.5"/>
<text text-anchor="start" x="325" y="-675.9" font-family="Helvetica,sans-Serif" font-size="12.00">account_id</text>
<polygon fill="White" stroke="none" points="392,-669.5 392,-688.5 444,-688.5 444,-669.5 392,-669.5"/>
<polygon fill="none" stroke="black" points="392,-669.5 392,-688.5 444,-688.5 444,-669.5 392,-669.5"/>
<text text-anchor="start" x="395" y="-675.9" font-family="Helvetica,sans-Serif" font-size="12.00">int</text>
<polygon fill="White" stroke="none" points="322,-650.5 322,-669.5 392,-669.5 392,-650.5 322,-650.5"/>
<polygon fill="none" stroke="black" points="322,-650.5 322,-669.5 392,-669.5 392,-650.5 322,-650.5"/>
<text text-anchor="start" x="325" y="-656.9" font-family="Helvetica,sans-Serif" font-size="12.00">date</text>
<polygon fill="White" stroke="none" points="392,-650.5 392,-669.5 444,-669.5 444,-650.5 392,-650.5"/>
<polygon fill="none" stroke="black" points="392,-650.5 392,-669.5 444,-669.5 444,-650.5 392,-650.5"/>
<text text-anchor="start" x="395" y="-656.9" font-family="Helvetica,sans-Serif" font-size="12.00">date</text>
<polygon fill="White" stroke="none" points="322,-631.5 322,-650.5 392,-650.5 392,-631.5 322,-631.5"/>
<polygon fill="none" stroke="black" points="322,-631.5 322,-650.5 392,-650.5 392,-631.5 322,-631.5"/>
<text text-anchor="start" x="325" y="-637.9" font-family="Helvetica,sans-Serif" font-size="12.00">type</text>
<polygon fill="White" stroke="none" points="392,-631.5 392,-650.5 444,-650.5 444,-631.5 392,-631.5"/>
<polygon fill="none" stroke="black" points="392,-631.5 392,-650.5 444,-650.5 444,-631.5 392,-631.5"/>
<text text-anchor="start" x="395" y="-637.9" font-family="Helvetica,sans-Serif" font-size="12.00">varchar</text>
<polygon fill="White" stroke="none" points="322,-612.5 322,-631.5 392,-631.5 392,-612.5 322,-612.5"/>
<polygon fill="none" stroke="black" points="322,-612.5 322,-631.5 392,-631.5 392,-612.5 322,-612.5"/>
<text text-anchor="start" x="325" y="-618.9" font-family="Helvetica,sans-Serif" font-size="12.00">operation</text>
<polygon fill="White" stroke="none" points="392,-612.5 392,-631.5 444,-631.5 444,-612.5 392,-612.5"/>
<polygon fill="none" stroke="black" points="392,-612.5 392,-631.5 444,-631.5 444,-612.5 392,-612.5"/>
<text text-anchor="start" x="395" y="-618.9" font-family="Helvetica,sans-Serif" font-size="12.00">varchar</text>
<polygon fill="White" stroke="none" points="322,-593.5 322,-612.5 392,-612.5 392,-593.5 322,-593.5"/>
<polygon fill="none" stroke="black" points="322,-593.5 322,-612.5 392,-612.5 392,-593.5 322,-593.5"/>
<text text-anchor="start" x="325" y="-599.9" font-family="Helvetica,sans-Serif" font-size="12.00">amount</text>
<polygon fill="White" stroke="none" points="392,-593.5 392,-612.5 444,-612.5 444,-593.5 392,-593.5"/>
<polygon fill="none" stroke="black" points="392,-593.5 392,-612.5 444,-612.5 444,-593.5 392,-593.5"/>
<text text-anchor="start" x="395" y="-599.9" font-family="Helvetica,sans-Serif" font-size="12.00">int</text>
<polygon fill="White" stroke="none" points="322,-574.5 322,-593.5 392,-593.5 392,-574.5 322,-574.5"/>
<polygon fill="none" stroke="black" points="322,-574.5 322,-593.5 392,-593.5 392,-574.5 322,-574.5"/>
<text text-anchor="start" x="325" y="-580.9" font-family="Helvetica,sans-Serif" font-size="12.00">balance</text>
<polygon fill="White" stroke="none" points="392,-574.5 392,-593.5 444,-593.5 444,-574.5 392,-574.5"/>
<polygon fill="none" stroke="black" points="392,-574.5 392,-593.5 444,-593.5 444,-574.5 392,-574.5"/>
<text text-anchor="start" x="395" y="-580.9" font-family="Helvetica,sans-Serif" font-size="12.00">int</text>
<polygon fill="White" stroke="none" points="322,-555.5 322,-574.5 392,-574.5 392,-555.5 322,-555.5"/>
<polygon fill="none" stroke="black" points="322,-555.5 322,-574.5 392,-574.5 392,-555.5 322,-555.5"/>
<text text-anchor="start" x="325" y="-561.9" font-family="Helvetica,sans-Serif" font-size="12.00">k_symbol</text>
<polygon fill="White" stroke="none" points="392,-555.5 392,-574.5 444,-574.5 444,-555.5 392,-555.5"/>
<polygon fill="none" stroke="black" points="392,-555.5 392,-574.5 444,-574.5 444,-555.5 392,-555.5"/>
<text text-anchor="start" x="395" y="-561.9" font-family="Helvetica,sans-Serif" font-size="12.00">varchar</text>
<polygon fill="White" stroke="none" points="322,-536.5 322,-555.5 392,-555.5 392,-536.5 322,-536.5"/>
<polygon fill="none" stroke="black" points="322,-536.5 322,-555.5 392,-555.5 392,-536.5 322,-536.5"/>
<text text-anchor="start" x="325" y="-542.9" font-family="Helvetica,sans-Serif" font-size="12.00">bank</text>
<polygon fill="White" stroke="none" points="392,-536.5 392,-555.5 444,-555.5 444,-536.5 392,-536.5"/>
<polygon fill="none" stroke="black" points="392,-536.5 392,-555.5 444,-555.5 444,-536.5 392,-536.5"/>
<text text-anchor="start" x="395" y="-542.9" font-family="Helvetica,sans-Serif" font-size="12.00">varchar</text>
<polygon fill="White" stroke="none" points="322,-517.5 322,-536.5 392,-536.5 392,-517.5 322,-517.5"/>
<polygon fill="none" stroke="black" points="322,-517.5 322,-536.5 392,-536.5 392,-517.5 322,-517.5"/>
<text text-anchor="start" x="325" y="-523.9" font-family="Helvetica,sans-Serif" font-size="12.00">account</text>
<polygon fill="White" stroke="none" points="392,-517.5 392,-536.5 444,-536.5 444,-517.5 392,-517.5"/>
<polygon fill="none" stroke="black" points="392,-517.5 392,-536.5 444,-536.5 444,-517.5 392,-517.5"/>
<text text-anchor="start" x="395" y="-523.9" font-family="Helvetica,sans-Serif" font-size="12.00">int</text>
</g>
<!-- trans&#45;&gt;account -->
<g id="edge8" class="edge"><title>trans&#45;&gt;account</title>
<path fill="none" stroke="black" d="M383,-513.971C383,-513.971 383,-488.018 383,-488.018"/>
<polygon fill="black" stroke="black" points="386.5,-488.018 383,-478.018 379.5,-488.018 386.5,-488.018"/>
</g>
</g>
</svg>
